<?xml version="1.0" encoding="utf-8"?>
<!-- Generator: Adobe Illustrator 21.0.0, SVG Export Plug-In . SVG Version: 6.00 Build 0)  -->
<svg version="1.1" id="Слой_1" xmlns="http://www.w3.org/2000/svg" xmlns:xlink="http://www.w3.org/1999/xlink" x="0px" y="0px"
	 viewBox="0 0 270.1 54.9" style="enable-background:new 0 0 270.1 54.9;" xml:space="preserve">
<style type="text/css">
	.st0{fill:#FFFFFF;}
</style>
<g>
	<g>
		<polygon class="st0" points="262.2,9.7 260.7,9.7 260.7,9.2 264.5,9.2 264.5,9.7 262.9,9.7 262.9,13.1 262.2,13.1 		"/>
		<path class="st0" d="M269.3,11.4c0-0.5-0.1-1.2-0.1-1.7l0,0c-0.2,0.5-0.4,0.9-0.6,1.5l-0.9,1.9h-0.5l-0.8-1.9
			c-0.2-0.6-0.4-1.1-0.6-1.5l0,0c0,0.5-0.1,1.1-0.1,1.7l-0.1,1.7H265l0.4-3.9h0.8l0.9,1.9c0.2,0.5,0.4,0.9,0.5,1.3l0,0
			c0.1-0.4,0.3-0.8,0.5-1.3l0.9-1.9h0.8l0.3,3.9h-0.6L269.3,11.4z"/>
		<g>
			<path class="st0" d="M116.1,45.3c-2,0-3-0.4-3-1.3c0-0.5,0.1-0.8,0.3-1c0.3,0.1,0.6,0.1,0.9,0.1c1.1,0,1.7-0.6,1.8-2V17.8
				c0-0.9-0.1-1.4-0.3-1.7c-0.3-0.4-0.8-0.6-1.4-0.6c-0.3,0-0.6,0-0.9,0.1s-0.5,0.1-0.6,0s-0.2-0.1-0.3-0.2c-0.3-0.4,0.1-0.9,1-1.6
				c1.4-1,2.8-1.5,4.2-1.5c1.5,0,2.3,0.8,2.5,2.3c0,0.5,0.1,0.9,0.1,1.5v25.2c0,1,0.4,1.6,1.1,1.8c0.2,0.1,0.4,0.1,0.7,0.2
				c0.3,0.1,0.5,0.1,0.8,0.2c0.2,0.1,0.4,0.1,0.5,0.2c0.2,0.2,0.3,0.4,0.3,0.8c0,0.4-0.1,0.8-0.3,1c-0.3-0.1-0.7-0.1-1.2-0.1h-6.2
				V45.3z"/>
			<path class="st0" d="M128.3,28.7c0-0.7,0-1.3-0.2-1.7c-0.1-0.4-0.3-0.6-0.7-0.6c-0.2,0-0.4,0-0.6,0.1l-0.5,0.2
				c-0.1,0-0.2,0-0.3-0.1c-0.2-0.3-0.4-0.5-0.4-0.7s0.1-0.4,0.2-0.7c0.1-0.2,0.4-0.5,0.7-0.8c0.3-0.3,0.7-0.6,1-0.8
				c0.9-0.6,1.7-0.8,2.4-0.8s1.2,0.1,1.5,0.4c0.3,0.2,0.5,0.5,0.7,0.9c0.3,0.6,0.4,1.6,0.4,2.8v11.7c0,2.1,0.7,3.3,2,3.5
				c0.5-0.1,1-0.1,1.5-0.1c0.6,0,1.1-0.1,1.8-0.2c0.6-0.1,1.2-0.3,1.8-0.5c1.1-0.4,2.1-1,2.9-1.7V28.7c0-1.2-0.2-1.9-0.7-2.2
				c-0.2-0.1-0.4-0.2-0.7-0.2s-0.5,0-0.7,0.1s-0.3,0.1-0.4,0.2c-0.1,0-0.2,0-0.3,0s-0.2-0.1-0.3-0.2c-0.2-0.2-0.3-0.4-0.3-0.6
				s0.1-0.4,0.2-0.7c0.2-0.2,0.4-0.5,0.8-0.8c0.4-0.3,0.8-0.6,1.2-0.9c1-0.6,2.1-0.9,3.1-0.9c1.3,0,2,0.9,2.2,2.6
				c0.1,0.5,0.1,1,0.1,1.5v11c0,1.9,0.1,3.1,0.2,3.6s0.3,0.8,0.6,0.9c0.2,0.1,0.5,0.2,0.8,0.2s0.6-0.1,0.8-0.2l0.6-0.2
				c0.2,0,0.3,0,0.5,0.2c0.3,0.4,0.3,0.7,0.1,1s-0.5,0.6-0.9,0.9c-0.4,0.3-0.9,0.5-1.4,0.8c-2.2,0.9-3.8,0.9-4.8-0.1
				c-0.5-0.5-0.8-1.3-0.8-2.4c-1.9,1.4-3.9,2.4-5.9,2.9c-0.7,0.2-1.5,0.3-2.3,0.3s-1.6-0.1-2.3-0.3c-0.8-0.2-1.4-0.6-2-1
				c-1.2-1-1.8-2.6-1.8-4.7V28.7H128.3z"/>
			<path class="st0" d="M153.3,35.3c0-1.5,0.2-2.8,0.5-4s0.8-2.2,1.3-3.1c0.6-0.9,1.2-1.7,1.9-2.4c0.7-0.7,1.5-1.3,2.4-1.7
				c1.7-0.9,3.3-1.4,5-1.4s2.9,0.3,3.9,0.8c1,0.6,1.8,1.3,2.4,2.2c1.2,1.8,1.7,4.1,1.7,7c0,1.1-0.5,1.6-1.4,1.7l-13.6,0.3
				c0.1,2.7,0.8,4.7,2.2,6c1.2,1.1,2.7,1.6,4.5,1.6c2.8,0,5-0.5,6.7-1.7c0.1,0,0.3,0.1,0.4,0.3c0.3,0.4,0.5,0.7,0.5,1
				c0,0.6-0.8,1.4-2.3,2.3c-1.8,1.1-3.9,1.6-6.3,1.6c-3.1,0-5.6-1-7.3-2.9C154.1,41,153.3,38.5,153.3,35.3z M157.6,32.2
				c3.7-0.2,7.2-0.4,10.3-0.7c0.1-4-1.3-5.9-4.3-5.9c-1.7,0-3,0.6-4.1,1.9C158.5,28.5,157.9,30.1,157.6,32.2z"/>
			<path class="st0" d="M183.2,25.2c2-1.7,4.1-2.6,6.5-2.6c2.6,0,4.8,0.9,6.5,2.6c1.8,1.9,2.7,4.5,2.7,7.9c0,3.8-1.2,6.9-3.7,9.3
				c-2.4,2.2-5.1,3.3-8.3,3.3c-2.1,0-4.2-0.5-6.2-1.4c-0.7-0.3-1.3-0.6-1.7-1V17.8c0-0.9-0.1-1.4-0.3-1.7c-0.3-0.4-0.7-0.6-1.4-0.6
				c-0.3,0-0.6,0-0.9,0.1c-0.3,0.1-0.5,0.1-0.6,0s-0.2-0.1-0.3-0.2c-0.3-0.4,0.1-0.9,1-1.6c1.4-1,2.8-1.5,4.2-1.5
				c1.5,0,2.3,0.8,2.5,2.3c0,0.5,0.1,0.9,0.1,1.5v9.1H183.2z M183.2,28.2v13.1c1.2,1,2.7,1.5,4.4,1.5c2,0,3.6-0.7,4.9-2.1
				c1.3-1.5,2-3.6,2-6.2c0-2.8-0.6-4.9-1.8-6.3c-1.1-1.3-2.5-1.9-4.4-1.9C186.4,26.1,184.7,26.8,183.2,28.2z"/>
			<path class="st0" d="M206,45.3c-2,0-3-0.4-3-1.3c0-0.4,0.1-0.8,0.3-1c0.3,0.1,0.6,0.1,0.9,0.1c1.2,0,1.8-0.7,1.8-2.2V28.4
				c0-0.9-0.1-1.5-0.4-1.8c-0.3-0.3-0.7-0.5-1.4-0.5c-0.5,0-0.9,0.1-1.3,0.2c-0.2,0-0.4-0.2-0.5-0.5s0-0.6,0.1-0.9
				c0.2-0.2,0.5-0.5,0.9-0.8s0.9-0.5,1.4-0.7c1.1-0.5,2-0.7,2.7-0.7s1.2,0.1,1.6,0.3c0.3,0.2,0.6,0.5,0.8,0.8
				c0.3,0.5,0.4,1.4,0.4,2.6v14.9c0,1,0.4,1.6,1.1,1.8c0.2,0.1,0.4,0.1,0.7,0.2c0.3,0.1,0.5,0.1,0.8,0.2c0.2,0.1,0.4,0.1,0.5,0.2
				c0.2,0.2,0.3,0.4,0.3,0.8c0,0.4-0.1,0.8-0.3,1c-0.3-0.1-0.7-0.1-1.2-0.1H206V45.3z M207.2,19.1c-0.4,0-0.9-0.1-1.2-0.2
				c-0.4-0.1-0.7-0.3-1-0.6c-0.6-0.5-0.9-1.2-0.9-2.1c0-0.8,0.3-1.6,1-2.1c0.6-0.6,1.4-0.9,2.3-0.9c0.9,0,1.6,0.3,2.2,0.8
				c0.5,0.5,0.8,1.2,0.8,2.1c0,0.8-0.3,1.6-1,2.1C208.9,18.8,208.1,19.1,207.2,19.1z"/>
			<path class="st0" d="M227.3,45.4c-0.3-0.1-0.7-0.1-1.3-0.1h-6.6c-1.2,0-2-0.2-2.4-0.6c-0.1-0.2-0.2-0.3-0.2-0.6
				c0-0.5,0.1-0.9,0.3-1.2c0.3,0.1,0.6,0.1,0.9,0.1c0.3,0,0.5,0,0.7-0.1s0.3-0.2,0.4-0.3c0.2-0.3,0.3-0.9,0.3-1.8V28.7
				c0-1.2-0.2-1.9-0.7-2.2c-0.2-0.1-0.4-0.2-0.7-0.2s-0.5,0-0.7,0.1s-0.3,0.1-0.4,0.2c-0.1,0-0.2,0-0.3,0s-0.2-0.1-0.2-0.2
				c-0.2-0.2-0.3-0.4-0.3-0.6s0.1-0.4,0.2-0.7c0.2-0.2,0.4-0.5,0.8-0.8c0.4-0.3,0.8-0.6,1.2-0.9c1-0.6,2.1-0.9,3.1-0.9
				c1.2,0,1.9,0.7,2.1,2.2c0.1,0.4,0.1,0.9,0.1,1.4c1.9-1.6,3.8-2.7,5.9-3.3c0.7-0.2,1.3-0.3,1.8-0.3s1,0.1,1.4,0.2s0.6,0.4,0.8,0.6
				c0.4,0.5,0.6,1.2,0.6,2s0,1.4-0.1,1.9s-0.2,0.9-0.3,1.3c-0.2,0.7-0.5,1.2-0.7,1.4c-0.4,0.4-0.8,0.5-1.5,0.5
				c-0.6,0-0.9-0.2-0.9-0.5c0-1.3-0.1-2.2-0.2-2.6c-0.2-0.7-0.6-1-1.2-1c-0.6,0-1.2,0.1-1.7,0.2s-1,0.3-1.4,0.5
				c-0.9,0.5-1.8,1-2.5,1.7v12.4c0,1,0.5,1.6,1.3,1.8c0.2,0.1,0.5,0.1,0.8,0.2c0.3,0.1,0.6,0.1,0.8,0.2c0.2,0.1,0.4,0.1,0.5,0.2
				c0.2,0.2,0.3,0.4,0.3,0.8C227.6,44.8,227.5,45.2,227.3,45.4z"/>
			<path class="st0" d="M252.8,43c-2,1.8-4.2,2.7-6.6,2.7c-2.7,0-4.8-0.9-6.5-2.6c-1.8-1.9-2.7-4.6-2.7-7.9c0-3.8,1.3-6.9,3.8-9.2
				c2.3-2.2,5.1-3.3,8.3-3.3c1.3,0,2.5,0.2,3.7,0.6v-5.4c0-0.9-0.1-1.4-0.3-1.7c-0.3-0.4-0.8-0.6-1.5-0.6c-0.3,0-0.6,0-0.8,0.1
				c-0.3,0.1-0.5,0.1-0.6,0s-0.2-0.1-0.3-0.2c-0.3-0.4,0.1-0.9,1-1.6c1.4-1,2.8-1.5,4.2-1.5c1.5,0,2.3,0.8,2.5,2.3
				c0,0.5,0.1,0.9,0.1,1.5v21.6c0,1.9,0.1,3.1,0.2,3.6c0.2,0.5,0.3,0.8,0.6,0.9c0.2,0.1,0.5,0.2,0.8,0.2s0.6-0.1,0.8-0.2l0.6-0.2
				c0.2,0,0.3,0,0.4,0.2c0.3,0.4,0.3,0.7,0.1,1c-0.2,0.3-0.5,0.6-0.9,0.9c-0.4,0.3-0.8,0.5-1.3,0.8c-2.1,0.9-3.7,0.9-4.7,0.1
				C253.3,44.6,253,43.9,252.8,43z M252.8,27c-1.3-0.9-2.7-1.4-4.4-1.4c-2,0-3.7,0.7-4.9,2.1c-1.4,1.5-2,3.6-2,6.2
				c0,4.2,1.2,6.8,3.7,7.8c0.8,0.3,1.5,0.4,2.3,0.4c0.7,0,1.3-0.1,1.8-0.2c0.5-0.1,0.9-0.3,1.4-0.4c0.8-0.4,1.6-0.8,2.2-1.4V27
				H252.8z"/>
		</g>
		<path class="st0" d="M91.1,10.9c0.6,0,1.3,0,2.3,0.1c0.9,0,2,0.1,3.1,0.3s2.2,0.4,3.4,0.7c1.1,0.3,2.2,0.8,3.1,1.4
			c0.9,0.6,1.6,1.4,2.2,2.3c0.6,0.9,0.8,2,0.8,3.3c0,1.8-0.6,3.4-1.6,4.6c-1.1,1.3-2.3,2.3-3.6,3.1c1.1,0.3,2.3,0.6,3.4,0.9
			c1.1,0.4,2.1,0.9,2.9,1.4c1.3,0.9,2.2,1.9,2.8,3.1c0.6,1.2,0.9,2.5,0.9,3.8s-0.4,2.7-1.3,4.3c-0.9,1.5-2.1,2.8-3.7,3.7
			c-1.1,0.6-2.4,1-3.9,1.1s-2.9,0.2-4.2,0.2c-0.6,0-1.3,0-2.2,0c-0.8,0-1.7,0-2.6,0s-1.7,0-2.4,0c-0.7,0-1.3,0-1.7,0
			c-0.8,0-1.7,0-2.7,0.1c-1,0-1.9,0.1-2.7,0.1V45c0.7-0.3,1.4-1,2.1-1.9c0.6-0.9,1-1.8,1.1-2.7c0.1-2.1,0.2-4,0.2-5.8s0-3.7,0-5.8
			c0-0.2,0-0.4,0-0.7c0-0.2,0-0.5,0-0.8c0-1,0-2,0-2.8s0-1.6,0-2.3c0-0.8,0-1.5,0-2.4c0-0.8-0.1-1.7-0.1-2.8
			c-0.1-0.7-0.3-1.3-0.7-1.9c1.3,0.1,2.3,0.1,3,0.2c0.7,0.1,1.3,0.1,1.7,0.2c0.4,0.1,0.6,0.1,0.7,0.2c0.1,0.1,0.2,0.1,0.2,0.2
			c0,0.1,0,0.3-0.1,0.6c-0.1,0.3-0.1,0.5-0.2,0.7c-0.1,1.6-0.1,3-0.1,4.2v4.7c0.7,0,1.5,0,2.5,0.1c1,0,1.7,0.1,2.2,0.1
			c0.6,0,1.3-0.1,2-0.4c0.7-0.2,1.3-0.7,1.9-1.2c0.6-0.6,1-1.3,1.4-2.2c0.4-0.9,0.6-2.1,0.6-3.4c0-1.1-0.4-2.1-1.2-2.9
			c-0.8-0.8-1.8-1.5-2.9-2s-2.3-0.9-3.5-1.1c-1.2-0.3-2.1-0.4-2.9-0.4c-2.5,0-4.6,0.3-6.5,1C82.6,14.2,81,15,79.7,16
			s-2.3,2.1-2.9,3.4c-0.7,1.2-1,2.4-1,3.6c0,1.4,0.2,2.5,0.6,3.1s1,0.9,1.7,0.9s1.3-0.2,1.6-0.6c0.3-0.4,0.5-0.8,0.5-1.3
			c0-1.1-0.2-1.9-0.6-2.3c-0.4-0.5-0.8-0.9-1.2-1.2c0.4,0,0.9,0.1,1.4,0.3c0.5,0.2,0.9,0.4,1.4,0.7c0.4,0.3,0.8,0.7,1.1,1.1
			c0.3,0.4,0.4,0.9,0.4,1.5c0,1.7-0.5,2.8-1.6,3.5s-2.3,1-3.6,1c-0.6,0-1.3-0.1-1.9-0.3c-0.6-0.2-1.2-0.6-1.8-1.1
			c-0.5-0.5-1-1.1-1.3-1.7c-0.3-0.7-0.5-1.5-0.5-2.4c0-1.8,0.4-3.5,1.3-5.1s2.1-3,3.7-4.2s3.6-2.2,6-2.9
			C85.3,11.2,88,10.9,91.1,10.9z M97.7,12.1c1.2,0.5,2.2,0.9,3,1.4c0.8,0.4,1.5,0.9,2,1.3c0.5,0.5,0.9,1,1.1,1.7
			c0.2,0.6,0.4,1.4,0.4,2.3c0,1-0.1,1.9-0.3,2.6c-0.2,0.8-0.4,1.4-0.8,2c-0.3,0.5-0.7,1-1.1,1.4s-0.8,0.7-1.1,1
			c0.5-0.3,1-0.7,1.5-1.1s1-0.8,1.4-1.3s0.7-1.1,1-1.8c0.2-0.7,0.4-1.6,0.4-2.6c0-2-0.7-3.6-2-4.6C101.8,13.3,100,12.5,97.7,12.1z
			 M88.7,20.4v19c0,0.6,0.1,1.1,0.2,1.5s0.3,0.7,0.5,0.9s0.5,0.4,0.8,0.5s0.7,0.3,1.1,0.5c-0.6-0.4-0.9-0.9-1-1.4s-0.1-1.1-0.1-2
			v-19c0-1.6,0.3-2.9,0.8-4.1c-0.6,0.4-1.1,0.9-1.6,1.7C89,18.7,88.7,19.5,88.7,20.4z M77,27.4c-0.5-0.4-0.9-1-1.3-1.8
			c-0.3-0.8-0.5-1.6-0.5-2.4c0-0.5,0.2-1.4,0.5-2.4c0.3-1.1,0.8-2,1.5-2.8c-0.5,0.3-0.9,0.7-1.2,1.2c-0.3,0.5-0.6,1-0.9,1.5
			c-0.2,0.5-0.4,1-0.5,1.5s-0.2,0.9-0.2,1.2c0,1,0.3,1.9,0.9,2.6C75.9,26.8,76.5,27.2,77,27.4z M79.4,29.2L79.4,29.2
			c0.9-0.2,1.6-0.7,2.1-1.4c0.5-0.7,0.8-1.4,0.8-2.2c0-0.7-0.2-1.3-0.6-1.9s-1-1.1-1.9-1.5c0.6,0.6,1,1.2,1.3,1.8
			c0.3,0.6,0.5,1.1,0.5,1.7c0,0.7-0.2,1.4-0.6,1.9C80.6,28,80.1,28.6,79.4,29.2z M100.9,27.2c2.5,0.8,4.4,1.9,5.8,3.4
			c1.4,1.5,2.1,3.2,2.2,5c0,2-0.4,3.8-1.4,5.3c-0.9,1.5-2.6,2.6-4.9,3.4c2.3-0.5,4.1-1.5,5.3-3.1c1.3-1.6,1.9-3.4,1.9-5.5
			c0-2-0.8-3.8-2.3-5.4C106.1,28.8,103.9,27.7,100.9,27.2z M90.9,39.8c0,0.7,0.1,1.3,0.3,1.8c0.2,0.5,0.6,0.8,1.1,1.1
			s1.2,0.5,2.1,0.6s2,0.2,3.4,0.2c1.2,0,2.4-0.2,3.5-0.5s2-0.7,2.7-1.2c0.9-0.7,1.5-1.4,1.7-2.3c0.3-0.9,0.4-1.7,0.4-2.4
			c0-1.1-0.2-2.2-0.6-3.2s-1-2-1.9-2.8c-0.8-0.8-1.9-1.5-3.3-2c-1.3-0.5-2.9-0.8-4.8-0.8c-0.2,0-0.5,0-0.9,0s-0.9,0-1.4-0.1
			c-0.5,0-1,0-1.5,0s-0.9,0-1.1,0c0,1.8,0,3.8,0.1,5.8C90.9,36,90.9,37.9,90.9,39.8z"/>
	</g>
</g>
<g>
	<path class="st0" d="M38.5,54.6c1.3-0.7,1.6-2.5,0.7-3.6c-0.4-0.8-1.3-1-2.3-0.8l0,0c0-0.1,0-0.1-0.1-0.1c-0.2,0-0.4,0-0.5-0.1
		c-0.2-0.5-0.5-0.9-0.7-1.4S35.1,48,35,47.3c-0.1-0.4-0.3-0.8-0.4-1.2c-0.7-1.8-1.4-3.5-2-5.3c-0.1-0.3-0.4-0.6-0.5-0.9
		c-0.1-0.1-0.1-0.3-0.2-0.4l0,0c0-0.1,0-0.1-0.1-0.2c-0.1-0.3-0.2-0.5-0.4-0.8c-0.4-0.8-0.9-1.5-1.5-2c-0.2-0.2-0.4-0.3-0.6-0.5
		c0.4,0.1,4.2,1.1,4.5,1.2c0.6,0.2,1.2,0.5,1.8,0.8c0.2,0.5,0.7,1,0.9,1.5s0.2,1,0.3,1.5l0,0c-0.1,0.1-0.2,0.2-0.2,0.4
		c-0.1,0-0.2,0-0.3,0c-1.2,0.1-1.6,2-1.1,3c0.2,0.5,0.8,0.9,1.2,1c0.6,0.1,1-0.1,1.5-0.5c0.9-0.7,1.1-2.1,0-2.8
		c-0.1-0.1-0.2-0.3-0.3-0.3v-0.1l0,0c0,0,0-0.1-0.1-0.1l0,0c0,0,0,0,0-0.1l-0.1-0.1c-0.1-0.1-0.1-0.1-0.2-0.1c0-0.6-0.2-1.3-0.3-1.8
		c-0.1-0.3-0.2-0.6-0.4-0.8c0.8,0.4,1.6,0.8,2.3,1.1c0,0.1,0.1,0.2,0.2,0.2c0.1,0,0.2,0.1,0.3,0.1c0.1,0.1,0.1,0.2,0.2,0.3v0.1
		c-0.5,0.6-0.7,1.6,0,2.6c0,0.1,0.1,0.1,0.2,0.2c0.7,1.4,2.7,1.6,3.7,0.4c0.8-1.1,1-3-0.1-3.9c-0.2-0.2-0.4-0.3-0.7-0.4
		c-0.1,0-0.1,0.1-0.1,0.1c-0.2,0-0.3-0.1-0.5-0.1c-0.3-0.1-0.7,0-1.1,0c-0.4,0-0.6,0.1-0.9,0.3c-0.4-0.3-0.8-0.6-1.3-0.8
		c0.4-0.1,0.8-0.4,1.1-0.7c0.1,0,0.1,0.1,0.2,0.1c0.4,0.5,1.5,0.5,2,0.2c1.3-0.6,1.4-2.4,0.5-3.4c-1-1-2.8-0.5-3.3,0.8
		c-0.2,0.5,0,1.2,0.1,1.7c0,0.1,0.1,0.2,0.1,0.2s0,0-0.1,0c-0.3,0.3-0.7,0.4-1.1,0.5c-0.2,0-0.3-0.1-0.5,0c-0.1,0-0.1,0-0.2,0
		c-1.1-0.5-2.3-1-3.4-1.5c-0.4-0.2-14.2-6.1-14.7-6.4c-0.7-0.4-1.5-0.5-2.1-1.1c-0.1-0.1-0.3,0-0.2,0.1v0.1c0,0.1,0.1,0.1,0.1,0.1
		c0.3,0.4,0.7,0.9,1.2,1.1c1,0.5,1.7,1.1,2.6,1.8c1.7,1.5,3.6,2.2,5.7,2.7c0.4,0.1,0.7,0.2,1.1,0.2c1,0.5,2,1.3,2.6,2.1
		c0.4,0.5,2,3.8,2.2,4.2c0,1.2,0.2,2.4,0.1,3.6c-0.1,0.9,0.1,2,0.3,3c-0.1,0.2-0.1,0.3-0.1,0.5c0,0.1-0.1,0.1-0.1,0.2
		c-0.4,0.1-0.7,0.3-0.9,0.6c-0.7,0.4-1.2,1.2-0.9,2.3c0,0.1,0.1,0.2,0.1,0.2c0.2,1.4,1.8,2.2,3.1,1.9c0.7-0.2,1.2-0.6,1.4-1.2v0.1
		C35.7,54.6,37.3,55.3,38.5,54.6 M35.9,42.9c0.1,0,0.2,0,0.3,0l0.1,0.1c-0.1,0-0.1,0-0.2,0C36,43,36,43,35.9,42.9
		C35.9,43,35.9,42.9,35.9,42.9L35.9,42.9 M35.5,42.9c-0.1,0-0.1,0.1-0.2,0.1c0-0.2,0.1-0.3,0.2-0.5C35.5,42.6,35.5,42.7,35.5,42.9
		 M36.4,43.3L36.4,43.3C36.4,43.3,36.5,43.3,36.4,43.3c0.2,0.1,0.3,0.1,0.4,0.2C36.6,43.5,36.5,43.4,36.4,43.3 M37.4,43.3
		c-0.3,0-0.7-0.1-0.9-0.4c-0.1-0.1-0.1-0.2-0.1-0.3c0,0,0,0,0-0.1c0,0,0-0.1,0.1-0.1c0.1-0.1,0.3,0,0.5,0c0.1,0,0.3,0.1,0.4,0.1v0.1
		C37.6,42.9,37.8,43.3,37.4,43.3 M37,42.1c-0.1,0-0.3,0-0.4,0c0-0.1,0-0.2-0.1-0.2c0.3,0,0.5,0.1,0.8,0.3
		C37.2,42.2,37.1,42.2,37,42.1 M36.8,45c-0.5,0.1-1-0.3-1.3-0.6s-0.3-0.9-0.2-1.3v0.1c0,0.1,0.1,0.1,0.1,0.2
		c-0.1,0.1-0.1,0.2-0.1,0.3c0.1,0.4,0.6,0.7,0.9,0.8c0.1,0,0.1,0,0.2,0.1c0,0.1,0,0.1,0.1,0.2c0.3,0.3,0.8,0.1,1.2-0.2l-0.1,0.1
		C37.4,44.7,37.1,44.9,36.8,45 M38.1,43.8L38.1,43.8c-0.1-0.1-0.1-0.1-0.2-0.2c0.1-0.1,0.1-0.2,0.2-0.3c0,0,0,0,0,0.1l0,0
		C38.1,43.4,38.1,43.6,38.1,43.8 M41.5,36.6c-0.1,0.1-0.1,0.2-0.1,0.3l0,0l-0.1-0.1C41.4,36.8,41.4,36.7,41.5,36.6L41.5,36.6
		L41.5,36.6 M42.1,35.7c0.1,0.1,0.2,0.4,0,0.4c-0.1,0-0.3,0-0.4,0.1c-0.3,0-0.6,0-0.6-0.4c0-0.3,0.5-0.3,0.7-0.3
		c0.1,0,0.2,0,0.3,0.1C42,35.6,42,35.7,42.1,35.7 M40,36.2L40,36.2L40,36.2L40,36.2 M40.5,36.1c0.1,0,0.2-0.1,0.3-0.2V36v0.1
		C40.8,36.1,40.6,36.1,40.5,36.1 M42.6,36.9C42.6,36.9,42.6,36.8,42.6,36.9c-0.1-0.2-0.1-0.2-0.1-0.3c0-0.1,0-0.2-0.1-0.2l0.1-0.1
		l0,0C42.6,36.4,42.6,36.7,42.6,36.9 M41.4,35.2c-0.2,0-0.3,0.1-0.4,0.2l-0.1-0.1c-0.1,0-0.2-0.1-0.3-0.1
		C40.9,35.2,41.1,35.2,41.4,35.2 M39.5,36.6L39.5,36.6C39.5,36.6,39.5,36.7,39.5,36.6C39.5,36.7,39.5,36.7,39.5,36.6
		c0,0.6,0.5,0.9,0.9,1.2c0.5,0.3,0.9,0.4,1.4,0.2c0.1,0,0.1-0.1,0.2-0.1c0,0,0.1,0,0.1-0.1c-0.4,0.4-1.1,0.7-1.6,0.5
		c-0.2-0.1-0.4-0.3-0.6-0.5l0,0l0,0C39.7,37.5,39.5,37.1,39.5,36.6 M41.9,42.8L41.9,42.8C42,42.8,42,42.8,41.9,42.8h0.2
		C42.1,42.8,42,42.8,41.9,42.8 M43,40.4L43,40.4c0,0.3,0.1,0.5,0,0.7c-0.1,0.2-0.3,0.2-0.5,0.2c-0.4,0-0.7-0.3-0.7-0.7
		c-0.1-0.7,0.5-0.6,0.9-0.4C42.8,40.2,42.9,40.3,43,40.4 M40.5,41.1C40.5,41.1,40.6,41.1,40.5,41.1l0.1,0.2l0,0
		c-0.1,0-0.2-0.1-0.3-0.1c0-0.1,0-0.1,0-0.2C40.3,41,40.4,41.1,40.5,41.1 M43,42.2c0.1,0,0.1-0.1,0.1-0.2c0,0,0,0,0.1,0
		C43.2,42.1,43.2,42.1,43,42.2L43,42.2 M39.8,41.6c0,0.1,0,0.1,0,0.2C39.8,41.7,39.8,41.7,39.8,41.6 M42.4,43.1
		c0.1,0,0.2-0.1,0.2-0.1C42.6,43.1,42.6,43.1,42.4,43.1C42.5,43.2,42.5,43.1,42.4,43.1 M39.7,40.9c0,0.1,0,0.2,0,0.3c0,0,0,0-0.1,0
		l0,0C39.6,41.1,39.7,41,39.7,40.9L39.7,40.9 M39.6,42.1c0.1,0.2,0.4,0.4,0.6,0.6c0.4,0.5,1,0.8,1.6,0.9c-0.8,0.3-1.7,0-2.1-0.9
		c-0.1-0.1-0.1-0.3-0.2-0.4C39.6,42.2,39.6,42.1,39.6,42.1 M21.7,32.4c0.3,0,6.9,3,6.3,2.8c-1.1-0.2-2.3-0.4-3.3-0.8
		C23.6,34,22.6,33.1,21.7,32.4 M35.9,52.9c0.2,0.2,0.4,0.3,0.7,0.4c0,0.1,0.1,0.2,0.1,0.2s0,0,0,0.1c-0.3-0.1-0.6-0.3-0.7-0.5
		C36,53,36,52.9,35.9,52.9 M38.2,52.5L38.2,52.5L38.2,52.5 M36.5,52.4L36.5,52.4L36.5,52.4c0,0-0.1,0-0.2-0.1
		C36.4,52.4,36.5,52.4,36.5,52.4 M37,51.4c0.1-0.1,0.2-0.2,0.3-0.2c0,0.1-0.1,0.2-0.1,0.4l0,0C37.1,51.5,37.1,51.4,37,51.4
		 M39.3,52.5L39.3,52.5L39.3,52.5L39.3,52.5 M39.1,51.8c0-0.1,0-0.1,0-0.2C39.2,51.6,39.2,51.7,39.1,51.8
		C39.2,51.8,39.2,51.8,39.1,51.8C39.2,51.7,39.2,51.7,39.1,51.8C39.2,51.8,39.2,51.8,39.1,51.8C39.2,51.8,39.1,51.8,39.1,51.8
		 M38.9,51.3L38.9,51.3c0,0.2,0,0.3-0.1,0.4c0,0.3-0.4,0.4-0.6,0.3c-0.3,0-0.6-0.2-0.7-0.6c-0.1-0.5,0.5-0.5,0.8-0.5
		C38.5,51,38.7,51.1,38.9,51.3 M37.4,50.9L37.4,50.9L37.4,50.9L37.4,50.9 M36,50.5C36,50.5,36,50.6,36,50.5
		C35.9,50.6,35.9,50.6,36,50.5c-0.1,0-0.1-0.1-0.1-0.2C36,50.4,36,50.5,36,50.5 M36.3,50.9c-0.1,0.1-0.2,0.2-0.3,0.4
		C36.1,51.1,36.2,51,36.3,50.9 M35.9,51.8L35.9,51.8L35.9,51.8L35.9,51.8 M35.8,52.8C35.8,52.8,35.9,52.8,35.8,52.8
		C35.9,52.8,35.8,52.8,35.8,52.8L35.8,52.8L35.8,52.8 M38.5,54.1c-0.7,0.5-1.6,0.3-2.1-0.2c0.6,0.3,1.4,0.4,1.9,0.2
		c0.1,0,0.3-0.1,0.3-0.3c0.2-0.1,0.3-0.2,0.4-0.3C38.9,53.7,38.7,53.9,38.5,54.1 M39,51.1C39,51.1,39,51.2,39,51.1
		C39,51.2,39,51.2,39,51.1c-0.2-0.2-0.5-0.4-0.8-0.4h-0.1c0,0,0-0.1-0.1-0.1c-0.2,0-0.5,0-0.7,0c0,0,0,0-0.1,0
		C37.9,50.5,38.6,50.6,39,51.1 M33.1,45.4c0-0.7-0.1-1.3-0.2-2c0-0.1,0-0.3,0-0.4c0.2,0.5,0.5,1.1,0.8,1.6c0.3,0.8,0.6,1.6,0.8,2.4
		c0.3,0.7,0.6,1.3,0.9,1.9c0.1,0.3,0.3,0.7,0.4,1c0,0,0,0-0.1,0c-0.1,0.2-0.2,0.6,0,0.9c-0.1,0.1-0.2,0.3-0.2,0.5
		c-0.1-0.4-0.2-0.7-0.4-1c-0.3-0.6-1.1-1-1.9-1.1C33.2,48,33.1,46.7,33.1,45.4 M33.7,53.4c-0.3,0-0.6-0.2-0.9-0.3
		C33.1,53.2,33.5,53.3,33.7,53.4C33.8,53.3,33.7,53.4,33.7,53.4 M33.5,51.9C33.5,51.9,33.4,52,33.5,51.9L33.5,51.9
		c-0.2,0-0.4-0.1-0.5-0.2c0,0,0.1,0,0.1-0.1C33.2,51.8,33.3,51.9,33.5,51.9 M31.9,51.3L31.9,51.3C31.9,51.4,31.9,51.4,31.9,51.3
		C31.8,51.3,31.8,51.3,31.9,51.3C31.8,51.3,31.9,51.3,31.9,51.3 M34.2,52.3C34.1,52.3,34.1,52.3,34.2,52.3
		C34.1,52.3,34.1,52.3,34.2,52.3C34.2,52.3,34.3,52.3,34.2,52.3 M32.5,51L32.5,51L32.5,51L32.5,51 M32.5,50.8L32.5,50.8L32.5,50.8
		L32.5,50.8 M32.8,49.9c-0.1,0-0.2,0.1-0.2,0.2h-0.1c0,0,0-0.1,0.1-0.1c0,0,0,0,0.1-0.1C32.7,49.9,32.7,49.9,32.8,49.9 M31.5,51.3
		c0,0.1,0,0.1,0,0.2l0,0l0,0c-0.1-0.1-0.2,0-0.3,0c0.1-0.1,0.1-0.3,0.2-0.4c0,0,0,0,0.1-0.1C31.5,51.1,31.5,51.2,31.5,51.3
		 M34.2,50.9L34.2,50.9c-0.1,0.8-1,0.4-1.2,0.1c0-0.6,0.2-0.8,0.7-0.6C33.9,50.4,34.1,50.6,34.2,50.9 M31.2,51.6L31.2,51.6
		L31.2,51.6l0.1,0.2l0,0c0,0.4,0.2,0.6,0.4,0.9c0.3,0.3,0.9,0.7,1.5,0.8c-0.1,0-0.2,0-0.3,0C32,53.5,31.2,52.6,31.2,51.6L31.2,51.6
		 M33.9,52.7L33.9,52.7c0.2,0,0.4,0,0.5-0.1c0,0.1,0,0.1-0.1,0.2C34.2,52.8,34,52.8,33.9,52.7 M34.7,51.3c0-0.2-0.1-0.4-0.2-0.6
		c0.2,0.3,0.4,0.8,0.4,1.2c0,0.3,0,0.5-0.1,0.7C34.9,52.2,34.8,51.6,34.7,51.3 M34,53.8c0.2-0.1,0.4-0.3,0.6-0.5l0.1-0.1
		c0.1-0.1,0.1-0.2,0.2-0.3v-0.1C34.7,53.2,34.5,53.5,34,53.8"/>
	<path class="st0" d="M65,44.5c-1.1-1.5-3.3-3-4.9-3.9c-1.6-0.8-3.4-0.8-5.1-1.1c-0.8-0.1-2.1-0.1-3.1-0.4c0-0.1-0.1-0.3-0.2-0.4
		c-1.5-1-3.3-1.6-4.8-2.6c-1.6-1-3.1-2-4.8-2.9c-0.2-0.1-0.3-0.2-0.5-0.2c2.2-0.4,4.5-0.5,6.6-1.3c1-0.4,1.6-0.6,2.5-1.2
		c0.7-0.4,1.3-1,2-1.5c0.7,0.3,1.3,0.4,1.9,1c0.7,0.6,1,1.4,2,1.7c1.9,0.8,5.8-1,7.2,0.7c-1-2.6-3.4-6.1-6.4-6.6
		c-1.2-0.2-2.8,0.5-3.7,1.3c-0.4,0.3-0.7,0.8-1,1.2c-1.2,0.3-2.3,1.2-3.4,1.8c0.2-0.4,0.3-0.8,0.4-1.2c0.2-0.5,0.2-0.6,0.2-1.1
		c0-0.3,0-0.6,0-1c0.3-0.7,0.5-1.4,1.1-2.2c1-1.3,1.8-2.6,1.4-4.4c-0.6-2.3-2.3-5.1-4-6.6c-0.1,1.2-0.4,1.5-0.7,2.5
		c-0.4,1.3-0.2,2.7,0,4c0.3,2.4,1.7,4,1.8,6.4l0.1,0.6c0,0.3-0.1,0.5-0.1,0.8c-0.2,0.8-0.7,1.7-1,2.5c-0.1,0.1-0.3,0.1-0.4,0.2
		c-1.4,0.4-2.7,1-4.1,1.2c-1,0.1-2.1,0.2-3,0.7c-2.9-1-6.1-1.1-9-2c-0.5-0.2-5.1-1.6-5.8-1.4c-1.7-0.3-3.3-0.6-5.1-0.9
		c-1.7-0.2-3.3,0-5-0.1c-1.6-0.1-3.1-0.3-4.7-0.4l0,0c0.6,0.2,0.8,0.7,1.3,0.9c0.5,0.2,1.1,0.5,1.7,0.5c1.5,0.2,3,0.3,4.6,0.3
		c-0.1,0.9,0.4,1.5,0.7,2.4c0.5,1.5,0,2.8-0.7,4.2c-1.4,3-0.9,5.2-1.1,8.4c0.9-1.6,2.1-2,3.6-2.9c1.9-1.1,2.6-3,2.8-5.2
		c0.2-3.4-2.8-4.5-4.3-6.9c1.8,0,10.1,1.3,11.2,1.6c3.4,0.9,7,1,10.3,2.3c1.9,0.7,3.5,2,5.2,3.1c1.2,0.8,2.4,1.4,3.6,2.1
		c0.8,0.9,1.5,3.7,1.7,4.7c0.5,2,0.7,3.2,2.8,3.8c4.3,1.3,7.8,0.9,11.9,0C65.7,46.6,65.6,45.4,65,44.5 M54.1,28.3
		c0.6-0.1,1.1-0.1,1.6,0c0.4-0.1,0.8-0.2,1.1-0.4c0.4-0.2,0.8-0.5,1.1-0.7c0,0,0.1,0,0,0c-0.3,0.4-0.9,0.9-1.4,1.2
		c0.5,0.1,0.9,0.2,1.4,0.4c0,0,0.1,0,0.1,0.1c0-0.1,0-0.2,0.1-0.2c0.5-0.2,1-0.2,1.4-0.5c0,0,0.1,0,0,0.1c-0.4,0.3-0.9,0.6-1.4,0.6
		c1.1,0.5,2,1.4,3.3,1.6v0.1c-1.1,0.1-1.9-0.5-2.8-1c-0.3-0.2-0.6-0.3-0.9-0.4c0.1,0.1,0.1,0.2,0.1,0.2c0.2,0.4,0.3,0.8,0.2,1.3
		c0,0.1-0.1,0.1-0.1,0c0-0.4-0.1-0.9-0.4-1.2c-0.2-0.3-0.5-0.4-0.8-0.6c-0.8-0.2-1.7-0.2-2.6-0.3C54,28.4,54,28.3,54.1,28.3
		 M49.2,16.2C49.2,16.1,49.2,16.1,49.2,16.2c0.1,1.4,0.4,2.7,0.6,4.1c0.1-0.5,0.5-1,0.7-1.4h0.1c-0.2,0.4-0.3,0.8-0.4,1.2
		c-0.1,0.4-0.1,0.7-0.2,1.1c0,0,0,0,0,0.1c0,0.3,0.1,0.5,0.1,0.8c0.2-0.6,0.8-1,1.2-1.3c0,0,0.1,0,0,0.1c-0.3,0.3-0.6,0.6-0.8,0.9
		s-0.3,0.6-0.4,0.9l0,0c0,0.7,0,1.4-0.1,2c0,0.1-0.1,0.1-0.1,0C49.9,21.7,48.5,19,49.2,16.2 M19.8,31.5c0.8,1.5,2.1,3.4,2,5.3l0,0
		c0.1,0.3,0.2,0.6,0.3,0.9c0.1,0.3,0.3,0.7,0.4,1c0,0,0,0.1-0.1,0c-0.2-0.4-0.5-0.9-0.7-1.4v0.1c-0.4,1.8-1.6,3.2-2.6,4.8
		c0,0.1-0.1,0-0.1-0.1c0.6-1.2,1.5-2.4,2.1-3.7c-0.5,0.5-1.2,0.7-1.7,1c0,0-0.1,0,0-0.1c0.7-0.5,1.6-1,2-1.8
		c0.1-0.4,0.1-0.8,0.1-1.2c0-0.2,0-0.5-0.1-0.7c-0.1,1.1-1.1,2-2,2.4c0,0-0.1,0,0-0.1c0.5-0.3,1-0.8,1.3-1.3
		c0.3-0.6,0.3-1.2,0.4-1.8c0,0,0-0.1,0.1-0.1C20.8,33.6,20.2,32.6,19.8,31.5C19.7,31.5,19.8,31.5,19.8,31.5 M62.5,44.9
		c-0.8,0.6-1.9,1.1-2.9,0.9c-0.1,0-0.1-0.2,0-0.2c0.5-0.1,1-0.1,1.5-0.2S62,45.1,62.5,44.9C62.5,44.8,62.5,44.9,62.5,44.9
		 M64.4,46.6c-1.8-0.1-3.8,0.1-5.5-0.5c0.1,0.1,0.2,0.3,0.2,0.4c0.1,0.2,0.1,0.4,0.1,0.6c0,0-0.1,0.1-0.1,0c0-0.2-0.1-0.4-0.2-0.6
		c-0.1-0.2-0.2-0.3-0.3-0.4V46c-0.5-0.2-1.1-0.4-1.6-0.8c-0.2-0.1-0.4-0.3-0.6-0.5c0.3,0.6,0.5,1.2,0.4,1.8l0,0
		c-0.2-0.7-0.4-1.3-0.6-1.9c0-0.1,0-0.1,0.1-0.1c-0.4-0.5-0.8-1.2-1.2-1.6c-0.3-0.3-0.6-0.6-0.9-0.9c1,1.1,1.1,2.8,0.8,4.2l0,0
		c0.1-0.8,0.1-1.6-0.1-2.3c-0.2-0.7-0.6-1.2-0.9-1.9c0-0.1,0-0.2,0.1-0.1c-0.5-0.4-1-0.8-1.5-1.2c0.3,0.3,0.5,0.7,0.5,1.1
		c0.1,0.7,0.2,1.5,0.4,2.2c0,0,0,0.1-0.1,0c-0.5-1.4-0.5-2.7-1.6-3.8c-0.1,0,0-0.1,0-0.1L51.7,40c-0.1-0.1,0-0.3,0.1-0.2
		c0.7,0.5,1.4,1,2.1,1.5c0,0,0,0,0.1,0c0.8,0,1.6,0.3,2.3,0.4c0.9,0.1,1.8,0.2,2.7,0.3v0.1c-1.5,0.2-3.4,0.1-4.9-0.5
		c0.2,0.2,0.4,0.3,0.5,0.5c0.5,0.5,1,1.1,1.4,1.7c0,0,0,0,0.1,0c0.3,0.1,0.5,0.2,0.8,0.3c0.3,0,0.6,0,1-0.1c0.3-0.1,0.6-0.3,0.8-0.4
		c0,0,0.1,0,0,0.1c-0.3,0.3-0.7,0.6-1.1,0.7c1.2,0.2,2.3,0.1,3.5-0.4c0,0,0,0,0,0.1c-1.2,0.6-3.3,1.2-4.6,0.5l0,0
		C58.7,46.4,61.8,45.9,64.4,46.6C64.5,46.5,64.5,46.6,64.4,46.6"/>
	<path class="st0" d="M26.4,28.8c-1.3-0.8-1.9-1.6-2.2-2.5c-1.1-0.1-2.8-0.7-4.2-1.3c-4.4,1.4-6.3,1.8-8.5,2.3
		c-5.7,5-9.1,6.2-9.1,6.2c-0.8-0.1-0.9-2.6-0.9-3.4C-0.4,29.7,0,29,0,29c8.5-4.3,14.1-8.6,14.1-8.6C20.7,10.6,28,7.3,29.3,6.3
		c1.1-1.4,3.2-4.5,5.9-6s6.3,3.4,6.3,3.4l1.9,1.8L41,6.4c0,0-0.1,0.9-1.1,2.6s0.5,2.4-0.5,6.2c-1.2,5.9-10,10.3-10.8,11
		c-0.7,2.3-1.1,2.5-1.1,2.5s0,0.2,0.1,0.4c0.8-0.1,2.1,2.8,0.9,1.5c-0.9-1.3-2.5-0.4-3.5,0c0.4-1.2,1.4-1.3,1.4-1.3L26.4,28.8z"/>
</g>
</svg>
